<?xml version="1.0" standalone="no"?>
<!DOCTYPE svg PUBLIC "-//W3C//DTD SVG 20010904//EN"
 "http://www.w3.org/TR/2001/REC-SVG-20010904/DTD/svg10.dtd">
<svg version="1.0" xmlns="http://www.w3.org/2000/svg"
 width="500.000000pt" height="500.000000pt" viewBox="0 0 500.000000 500.000000"
 preserveAspectRatio="xMidYMid meet">
<metadata>
Created by potrace 1.14, written by Peter Selinger 2001-2017
</metadata>
<g transform="translate(0.000000,500.000000) scale(0.100000,-0.100000)"
fill="#000000" stroke="none">
<path d="M2312 4709 c-262 -31 -554 -155 -763 -326 -438 -358 -647 -941 -518
-1447 55 -215 151 -415 351 -732 177 -281 221 -357 292 -504 68 -142 98 -233
127 -375 25 -128 44 -165 96 -189 35 -15 91 -16 623 -14 l585 3 32 23 c37 26
55 71 78 197 41 226 142 447 384 843 270 440 355 640 391 915 14 104 1 299
-30 437 -55 252 -189 507 -365 697 -326 352 -803 528 -1283 472z"/>
<path d="M1836 919 c-36 -43 -35 -91 3 -130 l29 -29 622 0 622 0 29 29 c21 22
29 39 29 66 0 27 -8 44 -29 66 l-29 29 -625 0 -625 0 -26 -31z"/>
<path d="M1839 571 c-38 -39 -39 -87 -3 -130 l26 -31 139 0 139 0 20 -39 c10
-22 31 -49 46 -60 26 -20 38 -21 289 -21 251 0 263 1 289 21 15 11 36 38 46
60 l20 39 131 0 131 0 29 29 c21 22 29 39 29 66 0 27 -8 44 -29 66 l-29 29
-622 0 -622 0 -29 -29z"/>
</g>
</svg>
